<?xml version="1.0" encoding="iso-8859-1"?>
<!-- Generator: Adobe Illustrator 19.0.0, SVG Export Plug-In . SVG Version: 6.00 Build 0)  -->
<svg version="1.1" id="Capa_1" xmlns="http://www.w3.org/2000/svg" xmlns:xlink="http://www.w3.org/1999/xlink" x="0px" y="0px"
	 viewBox="0 0 512 512" style="enable-background:new 0 0 512 512;" xml:space="preserve">
<g>
	<g>
		<path d="M336,0c-14.432,0-28.672,1.792-42.368,5.312c-8.576,2.208-13.728,10.912-11.52,19.456
			c2.208,8.576,10.976,13.76,19.456,11.52C312.672,33.44,324.256,32,336,32c79.392,0,144,66.464,144,148.16
			c0,93.696-108.16,220.832-144.064,260.416c-3.968-4.384-8.832-9.888-14.272-16.32c-5.696-6.752-15.808-7.616-22.56-1.888
			c-6.752,5.696-7.584,15.808-1.888,22.56c16.224,19.2,27.456,30.432,27.456,30.432c3.008,2.944,7.072,4.64,11.328,4.64
			c0.032,0,0.064,0,0.096,0c4.256-0.032,8.352-1.76,11.328-4.832C354.176,468.288,512,304.928,512,180.16C512,80.8,433.056,0,336,0z
			"/>
	</g>
</g>
<g>
	<g>
		<path d="M176,32C78.944,32,0,112.864,0,212.256c0,124.544,157.824,288,164.544,294.88C167.552,510.24,171.68,512,176,512
			s8.448-1.76,11.456-4.832C194.176,500.256,352,336.8,352,212.256C352,112.864,273.056,32,176,32z M176,472.512
			C140.032,432.8,32,305.728,32,212.256C32,130.528,96.608,64,176,64s144,66.528,144,148.256C320,305.728,211.968,432.8,176,472.512
			z"/>
	</g>
</g>
<g>
	<g>
		<path d="M176,128c-44.096,0-80,35.904-80,80s35.904,80,80,80s80-35.904,80-80S220.096,128,176,128z M176,256
			c-26.464,0-48-21.536-48-48s21.536-48,48-48s48,21.536,48,48S202.464,256,176,256z"/>
	</g>
</g>
<g>
</g>
<g>
</g>
<g>
</g>
<g>
</g>
<g>
</g>
<g>
</g>
<g>
</g>
<g>
</g>
<g>
</g>
<g>
</g>
<g>
</g>
<g>
</g>
<g>
</g>
<g>
</g>
<g>
</g>
</svg>
